<mxfile host="app.diagrams.net" modified="2024-04-29T12:53:51.792Z" agent="Mozilla/5.0 (Windows NT 10.0; Win64; x64; rv:125.0) Gecko/20100101 Firefox/125.0" version="24.3.0" etag="7y-KalYI8Y6XE24poqeq" type="github">
  <diagram name="Page-1" id="9mkFSTUzznH25_XKm-JT">
    <mxGraphModel>
      <root>
        <mxCell id="0" />
        <mxCell id="1" parent="0" />
      </root>
    </mxGraphModel>
  </diagram>
</mxfile>
